# xmcd
#
# Track frame offsets: 
#        150
#        18688
#        41053
#        67520
#        87294
#        101395
#        126346
#        140007
#        156109
#
# Disc length: 2272 seconds
#
# Revision: 0
# Processed by: cddbd v1.5.2PL0 Copyright (c) Steve Scherf et al.
# Submitted via: ExactAudioCopy v0.99pb4
#
DISCID=7208de09
DTITLE=Skorpio - Azt Beszeli Mar Az Egesz Varos
DYEAR=1985
DGENRE=Rock
TTITLE0=Azt beszeli mar az egesz varos
TTITLE1=Ha elveszitenelek
TTITLE2=Ne felj
TTITLE3=Ejfel utan
TTITLE4=Anyam jo fiad leszek
TTITLE5=Erinted a ket kezem
TTITLE6=Huzzatok el eletembol
TTITLE7=Mint a lavina
TTITLE8=Karib ejszakak
EXTD=
EXTT0=
EXTT1=
EXTT2=
EXTT3=
EXTT4=
EXTT5=
EXTT6=
EXTT7=
EXTT8=
PLAYORDER=
